Coordinates
version=1
nRows=49
nColumns=12
inDegrees=yes

Units are S.I. units (second, meters, Newtons, ...)
Angles are in degrees

endheader
time	SC_y	SC_z	SC_x	AC_y	AC_z	AC_x	GH_y	GH_z	GH_yy	EL_x	PS_y
       0.0              -13.42          29.19          28.47          33.42        -0.5197          11.35         -63.94          61.83          59.23          78.32          19.35
   0.04048              -13.42          29.19          28.47          33.42        -0.5212          11.35         -63.92          61.83          59.24          78.33          19.36
   0.08096              -13.42          29.18          28.48          33.42        -0.5227          11.35          -63.9          61.82          59.24          78.34          19.37
    0.1214              -13.42          29.18          28.49          33.42        -0.5243          11.35         -63.87          61.82          59.24          78.34          19.39
    0.1619              -13.42          29.17           28.5          33.43         -0.526          11.35         -63.85          61.82          59.25          78.35           19.4
    0.2024              -13.42          29.17          28.51          33.43        -0.5278          11.35         -63.82          61.82          59.25          78.36          19.42
    0.2429              -13.42          29.16          28.52          33.43        -0.5297          11.35         -63.79          61.82          59.25          78.37          19.44
    0.2834              -13.42          29.15          28.53          33.43        -0.5318          11.34         -63.76          61.81          59.26          78.38          19.46
    0.3238              -13.42          29.15          28.55          33.43        -0.5341          11.34         -63.73          61.81          59.26          78.39          19.48
    0.3643              -13.43          29.14          28.56          33.43        -0.5364          11.34         -63.69          61.81          59.27           78.4           19.5
    0.4048              -13.43          29.13          28.57          33.43         -0.539          11.34         -63.65           61.8          59.27          78.41          19.52
    0.4453              -13.43          29.12          28.59          33.44        -0.5418          11.34         -63.61           61.8          59.28          78.42          19.55
    0.4858              -13.43          29.11          28.61          33.44        -0.5447          11.34         -63.57           61.8          59.28          78.43          19.57
    0.5262              -13.43           29.1          28.62          33.44         -0.548          11.34         -63.52          61.79          59.29          78.45           19.6
    0.5667              -13.43          29.09          28.64          33.44        -0.5514          11.34         -63.47          61.79           59.3          78.46          19.64
    0.6072              -13.44          29.08          28.66          33.45        -0.5552          11.33         -63.41          61.78           59.3          78.48          19.67
    0.6477              -13.44          29.06          28.69          33.45        -0.5593          11.33         -63.35          61.78          59.31           78.5          19.71
    0.6882              -13.44          29.05          28.71          33.45        -0.5638          11.33         -63.28          61.77          59.32          78.52          19.75
    0.7286              -13.45          29.03          28.74          33.46        -0.5686          11.33         -63.21          61.77          59.33          78.54          19.79
    0.7691              -13.45          29.01          28.77          33.46         -0.574          11.33         -63.13          61.76          59.34          78.56          19.84
    0.8096              -13.45          28.99           28.8          33.46        -0.5798          11.32         -63.04          61.75          59.35          78.59          19.89
    0.8501              -13.46          28.97          28.84          33.47        -0.5863          11.32         -62.94          61.74          59.36          78.62          19.95
    0.8906              -13.46          28.95          28.88          33.47        -0.5934          11.32         -62.83          61.73          59.38          78.65          20.02
     0.931              -13.46          28.92          28.92          33.48        -0.6013          11.31         -62.72          61.72          59.39          78.68          20.09
    0.9715              -13.47          28.89          28.97          33.49        -0.6101          11.31         -62.58          61.71          59.41          78.72          20.17
     1.012              -13.48          28.86          29.03          33.49        -0.6199          11.31         -62.44           61.7          59.43          78.77          20.26
     1.052              -13.48          28.82          29.09           33.5        -0.6309           11.3         -62.27          61.69          59.45          78.81          20.36
     1.093              -13.49          28.78          29.16          33.51        -0.6432           11.3         -62.09          61.67          59.47          78.87          20.47
     1.133               -13.5          28.74          29.24          33.52        -0.6572          11.29         -61.88          61.65           59.5          78.93           20.6
     1.174              -13.51          28.68          29.33          33.53         -0.673          11.28         -61.64          61.63          59.53           79.0          20.74
     1.214              -13.52          28.62          29.43          33.54        -0.6911          11.27         -61.37          61.61          59.57          79.08          20.91
     1.255              -13.53          28.55          29.55          33.56        -0.7118          11.26         -61.06          61.58          59.61          79.17          21.09
     1.295              -13.54          28.47          29.68          33.58        -0.7358          11.25          -60.7          61.55          59.65          79.28          21.31
     1.336              -13.56          28.38          29.84           33.6        -0.7636          11.24         -60.28          61.52          59.71           79.4          21.56
     1.376              -13.58          28.27          30.02          33.62        -0.7961          11.23         -59.79          61.48          59.77          79.54          21.86
     1.417               -13.6          28.15          30.24          33.65        -0.8345          11.21         -59.21          61.43          59.85          79.71          22.21
     1.457              -13.63          27.99          30.49          33.68        -0.8801          11.19         -58.53          61.37          59.93          79.91          22.62
     1.498              -13.66          27.81           30.8          33.72        -0.9348          11.17         -57.71           61.3          60.04          80.16          23.12
     1.538               -13.7          27.59          31.17          33.77         -1.001          11.14         -56.71          61.21          60.17          80.45          23.72
     1.579              -13.75          27.32          31.63          33.83         -1.082           11.1          -55.5          61.11          60.32           80.8          24.46
     1.619              -13.81          26.99          32.19           33.9         -1.181          11.05          -54.0          60.98          60.52          81.24          25.36
      1.66              -13.89          26.58          32.89          33.99         -1.306           11.0         -52.13          60.82          60.76          81.79           26.5
       1.7              -13.98          26.05          33.77           34.1         -1.463          10.93         -49.78          60.62          61.06          82.48          27.92
     1.741               -14.1          25.39          34.89          34.24         -1.662          10.84         -46.79          60.37          61.45          83.36          29.73
     1.781              -14.25          24.54          36.32          34.43         -1.917          10.73         -42.96          60.04          61.94          84.49          32.05
     1.822              -14.45          23.45          38.16          34.66         -2.244          10.58         -38.05          59.63          62.58          85.93          35.02
     1.862              -14.69          22.06          40.51          34.96         -2.662          10.39         -31.77          59.09          63.39          87.77          38.82
     1.903              -15.01          20.31          43.47          35.34         -3.187          10.16         -23.88          58.42          64.41          90.09           43.6
     1.943              -15.39          18.18          47.07           35.8         -3.827          9.874         -14.26           57.6          65.65          92.91          49.42
